# xmcd
#
# Track frame offsets:
#	182
#	14257
#	29615
#	41927
#	52187
#	62770
#	76217
#	88152
#	99457
#	108047
#	119650
#	137760
#	149690
#	160607
#	175445
#	191487
#	200480
#	209775
#
# Disc length: 2888
#
# Revision: 1
# Processed by: cddbd v1.5.1PL0 Copyright (c) Steve Scherf et al.
# Submitted via: VisiTrax 2.9.5.180 - For more info visit www.synapsa.com
# Normalized: r0:DSETVAR1
#
DISCID=110b4612
DTITLE=Various Artist - A Traditional Christams
DYEAR=1994
DGENRE=Christmas
TTITLE0=David Houston - Silent night
TTITLE1=Johnny Carver - The first Noel
TTITLE2=Jan Howard - Oh little town of Bethlehem
TTITLE3=David Houston - Away in a manger
TTITLE4=John Wesley Ryles - We three kings of Orient are
TTITLE5=Sandy Posey - It came upon a midnight clear
TTITLE6=Nat Stuckey - Oh! Come all ye faithful
TTITLE7=Melba Montgomery - Hark! The herald angels sing
TTITLE8=Dickey Lee - Go tell it on the mountain
TTITLE9=Paul Todd - God rest ye merry gentlemen
TTITLE10=Margo Smith - The twelve days of christmas
TTITLE11=Dickey Lee - Deck the halls
TTITLE12=Squirls - Rudolph the red nosed reindeer
TTITLE13=S J Group - All I want for christmas is my two front teeth
TTITLE14=Billy Walker - White christmas
TTITLE15=Jack Greene - I'll be home for christmas
TTITLE16=Bobby Helms - Jingle bell rock
TTITLE17=Margo Smith - We wish you a merry christmas
EXTD=
EXTT0=
EXTT1=
EXTT2=
EXTT3=
EXTT4=
EXTT5=
EXTT6=
EXTT7=
EXTT8=
EXTT9=
EXTT10=
EXTT11=
EXTT12=
EXTT13=
EXTT14=
EXTT15=
EXTT16=
EXTT17=
PLAYORDER=
